<svg xmlns="http://www.w3.org/2000/svg" viewBox="0 0 619.33 299.59"><defs><style>.cls-1{fill:#a0a0a0;}</style></defs><title>a23-footer</title><g id="Layer_2" data-name="Layer 2"><g id="Layer_1-2" data-name="Layer 1"><path class="cls-1" d="M301.17,146.76a3.53,3.53,0,0,1-1.1-2.57l.37-2L347,22.8a5.33,5.33,0,0,1,5.33-3.68h6.25a5.34,5.34,0,0,1,5.33,3.68l46.53,119.36.37,2a3.77,3.77,0,0,1-3.68,3.68h-3.68a3.8,3.8,0,0,1-2.67-.92,5.11,5.11,0,0,1-1.38-1.84L388,115.67H322.87l-11.4,29.43a5.18,5.18,0,0,1-1.38,1.84,3.81,3.81,0,0,1-2.67.92h-3.68A3.53,3.53,0,0,1,301.17,146.76Zm26.12-42.12h56.28L355.42,32.18Z"/><path class="cls-1" d="M425.86,146.76a4,4,0,0,1-1.1-2.94v-2.76q0-3.68,4.6-7.73L477,85.7q10.11-9.38,13.61-15.82a31.56,31.56,0,0,0,3.49-15.26q0-12.32-7.08-19.31t-20.14-7q-12.32,0-19.68,7.17T438.37,54.8A4.56,4.56,0,0,1,434.14,59h-3.68a3.85,3.85,0,0,1-2.85-1,3.37,3.37,0,0,1-1-2.48,43.58,43.58,0,0,1,4.78-17.84,36.87,36.87,0,0,1,13.43-14.62q9-5.79,22.07-5.79,19.68,0,29.24,10.67t9.56,26.67a41,41,0,0,1-4.78,19.86q-4.78,8.83-15.27,18.58l-43,43.77h61.61a3.84,3.84,0,0,1,4.23,4.23v2.76a3.81,3.81,0,0,1-1.19,2.94,4.31,4.31,0,0,1-3,1.1h-75.4A4,4,0,0,1,425.86,146.76Z"/><path class="cls-1" d="M547.71,145.29q-9.84-4.41-15.17-11.59a27.5,27.5,0,0,1-5.7-15.45,3.17,3.17,0,0,1,1.1-2.58,4.17,4.17,0,0,1,2.76-.92h2.57a5.66,5.66,0,0,1,3.13.83,5.14,5.14,0,0,1,1.84,3.4q2.57,10.85,11.68,15.26a47.26,47.26,0,0,0,20.87,4.41q14.71,0,23.54-7t8.83-20.23q0-25.38-30.53-25.38H556.44a3.8,3.8,0,0,1-4-4V79.26a7.93,7.93,0,0,1,1.66-4.41l37.89-44.69H536.4a3.8,3.8,0,0,1-4-4V23.35a4.31,4.31,0,0,1,1.1-3,3.81,3.81,0,0,1,2.94-1.19H605a4.23,4.23,0,0,1,3.13,1.1,4.23,4.23,0,0,1,1.1,3.13v2.76a5.71,5.71,0,0,1-1.47,3.49L568.95,75h3.68q19.49,0,30.81,9.2t11.31,27.22A36.68,36.68,0,0,1,609,132a35.94,35.94,0,0,1-15.63,13.24,54.21,54.21,0,0,1-22.62,4.51Q557.55,149.7,547.71,145.29Z"/><path class="cls-1" d="M311,280.36a3.31,3.31,0,0,1-.92-2.46V177.23a3.17,3.17,0,0,1,3.38-3.38h2.92a3.17,3.17,0,0,1,3.38,3.38v94.85H372.7a3.21,3.21,0,0,1,3.53,3.53v2.3a3.18,3.18,0,0,1-1,2.46,3.59,3.59,0,0,1-2.53.92H313.45A3.32,3.32,0,0,1,311,280.36Z"/><path class="cls-1" d="M400,279.75A26.34,26.34,0,0,1,390,271.46,19.23,19.23,0,0,1,386.2,260a20.14,20.14,0,0,1,8.21-16.57q8.21-6.45,22.18-8.29l24.25-3.38v-5.37q0-8.44-5.14-13T420,208.84q-7.83,0-12.81,3.07t-6.37,7.37a5.51,5.51,0,0,1-1.46,2.53,3.41,3.41,0,0,1-2.23.69h-2.15a3.41,3.41,0,0,1-3.38-3.38q0-3.37,3.07-7.9a25.41,25.41,0,0,1,9.52-7.9q6.45-3.37,15.81-3.38,16.42,0,23.33,7.83a27.76,27.76,0,0,1,6.91,19v51.11a3.17,3.17,0,0,1-3.38,3.38h-2.61a3.17,3.17,0,0,1-3.38-3.38V270.7a27,27,0,0,1-9.9,8.59q-6.52,3.53-17.27,3.53A30.75,30.75,0,0,1,400,279.75Zm33.61-13.2q7.21-7.37,7.21-21.18v-5.22L421,242.92q-12.59,1.69-19,5.83t-6.45,10.44a12.25,12.25,0,0,0,5.91,10.9,24.65,24.65,0,0,0,13.74,3.84Q426.41,273.92,433.62,266.55Z"/><path class="cls-1" d="M484,270.7v7.21a3.17,3.17,0,0,1-3.38,3.38H478a3.17,3.17,0,0,1-3.38-3.38V175.69a3.17,3.17,0,0,1,3.38-3.38h2.61a3.17,3.17,0,0,1,3.38,3.38v36.37q9.05-12.12,25.78-12.12,16.58,0,24.48,10.82t8.36,26.32q.15,1.54.15,4.3t-.15,4.3q-.46,15.5-8.36,26.32t-24.48,10.82Q492.86,282.82,484,270.7ZM527,266q5.76-7.9,6.22-20.34.15-1.53.15-4.3,0-14.27-5.53-23.41t-19-9.13a23.38,23.38,0,0,0-13.66,3.84,24.18,24.18,0,0,0-8.29,9.75A30.89,30.89,0,0,0,484,234.94l-.15,6,.15,6a32.75,32.75,0,0,0,6.6,19q6.14,8.06,18.26,8.06Q521.26,273.92,527,266Z"/><path class="cls-1" d="M572,279.44a30,30,0,0,1-10.28-7.67q-3.45-4.3-3.45-6.91a2.69,2.69,0,0,1,1.07-2.23,3.66,3.66,0,0,1,2.3-.84h2.3a3.63,3.63,0,0,1,1.77.38,5.92,5.92,0,0,1,1.61,1.61,24.71,24.71,0,0,0,8.21,7.44q4.83,2.69,13.28,2.69,9.51,0,15.35-3.61A11.49,11.49,0,0,0,610,260a9.64,9.64,0,0,0-2.38-6.75q-2.38-2.61-7.67-4.53a151.89,151.89,0,0,0-15.73-4.37q-13.66-3.07-18.65-8.44a19.28,19.28,0,0,1-5-13.66,20,20,0,0,1,3.15-10.74,23.27,23.27,0,0,1,9.36-8.29,32.16,32.16,0,0,1,15-3.22q9.21,0,15.58,3.15a26.31,26.31,0,0,1,9.52,7.29q3.14,4.14,3.15,6.75a2.77,2.77,0,0,1-1,2.23,3.56,3.56,0,0,1-2.38.84h-2.3a3.79,3.79,0,0,1-3.38-2,22.72,22.72,0,0,0-7-7q-3.91-2.38-12.2-2.38-8.9,0-13.51,3.68a11.78,11.78,0,0,0-4.6,9.67,9.94,9.94,0,0,0,1.84,6.14q1.84,2.46,6.91,4.53a96.35,96.35,0,0,0,14.73,4.22q14.27,3.22,20.11,8.59T619.33,260a20.11,20.11,0,0,1-3.53,11.51,23.9,23.9,0,0,1-10.44,8.29,40.65,40.65,0,0,1-16.58,3.07Q578.81,282.82,572,279.44Z"/><polygon class="cls-1" points="282.95 0.28 281.66 0.75 280.37 1.22 279.08 1.68 277.8 2.15 276.51 2.62 275.22 3.09 273.93 3.56 272.65 4.02 271.36 4.49 270.07 4.96 268.78 5.43 267.5 5.89 266.21 6.36 264.92 6.83 263.63 7.3 262.35 7.76 261.06 8.23 259.77 8.7 258.48 9.17 257.2 9.64 255.91 10.1 254.62 10.57 253.33 11.04 252.05 11.51 250.76 11.97 249.47 12.44 248.18 12.91 246.9 13.38 245.61 13.85 244.32 14.31 243.03 14.78 241.75 15.25 240.46 15.72 239.17 16.18 237.88 16.65 236.6 17.12 235.31 17.59 234.02 18.05 232.73 18.52 231.45 18.99 230.16 19.46 228.87 19.93 227.58 20.39 226.3 20.86 225.01 21.33 223.72 21.8 222.43 22.27 221.15 22.73 219.86 23.2 218.57 23.67 217.28 24.14 216 24.6 214.71 25.07 213.42 25.54 212.13 26.01 210.85 26.47 209.56 26.94 208.27 27.41 206.98 27.88 205.7 28.34 204.41 28.81 203.12 29.28 201.83 29.75 200.55 30.22 199.26 30.68 197.97 31.15 196.68 31.62 195.4 32.09 194.11 32.55 192.82 33.02 191.53 33.49 190.25 33.96 188.96 34.43 187.67 34.89 186.38 35.36 185.1 35.83 183.81 36.3 182.52 36.77 181.23 37.23 179.95 37.7 178.66 38.17 177.37 38.64 176.08 39.1 174.8 39.57 173.51 40.04 172.22 40.51 170.93 40.97 169.65 41.44 168.36 41.91 167.07 42.38 165.78 42.84 164.5 43.31 163.21 43.78 161.92 44.25 160.63 44.72 159.34 45.18 158.45 45.51 161.31 47.9 165.41 51.31 169.52 54.73 173.62 58.15 177.72 61.57 181.82 64.99 184.62 67.31 185.03 67.16 186.31 66.69 187.6 66.22 188.88 65.75 190.16 65.27 191.45 64.8 192.73 64.33 194.02 63.86 195.3 63.38 196.59 62.91 197.87 62.44 199.15 61.97 200.44 61.49 201.72 61.02 203 60.55 204.29 60.08 205.57 59.6 206.86 59.13 208.14 58.66 209.43 58.19 210.71 57.71 211.99 57.24 213.28 56.77 214.56 56.3 215.85 55.82 217.13 55.35 218.41 54.88 219.7 54.41 220.98 53.93 222.27 53.46 223.55 52.99 224.84 52.52 226.12 52.04 227.4 51.57 228.69 51.1 229.97 50.63 231.25 50.16 232.54 49.68 233.82 49.21 235.11 48.74 236.39 48.27 237.68 47.79 238.96 47.32 240.24 46.85 241.53 46.38 242.81 45.9 244.1 45.43 245.38 44.96 246.06 44.71 245.82 46.13 245.46 48.19 245.1 50.25 244.75 52.31 244.39 54.37 244.04 56.43 243.68 58.49 243.33 60.55 242.97 62.61 242.61 64.67 242.26 66.73 241.9 68.79 241.55 70.85 241.19 72.91 240.84 74.97 240.48 77.03 240.12 79.09 239.77 81.15 239.41 83.21 239.06 85.27 238.7 87.33 238.34 89.39 237.99 91.45 237.63 93.51 237.28 95.57 236.92 97.63 236.56 99.69 236.21 101.75 235.85 103.81 235.5 105.87 235.14 107.93 234.79 109.99 234.43 112.05 234.07 114.11 233.72 116.17 233.36 118.23 233.01 120.29 232.65 122.35 232.3 124.41 231.94 126.47 231.58 128.53 231.23 130.59 230.87 132.65 230.52 134.71 230.16 136.78 229.81 138.84 229.45 140.9 229.09 142.96 228.94 143.86 228.5 143.5 226.71 142 224.91 140.5 223.11 139 221.31 137.51 219.52 136.01 217.72 134.51 215.92 133.02 214.13 131.52 212.33 130.02 210.53 128.53 208.74 127.03 206.94 125.53 205.14 124.04 203.35 122.54 201.55 121.04 199.75 119.55 197.96 118.05 196.16 116.55 194.36 115.05 192.57 113.56 190.77 112.06 188.97 110.56 187.18 109.07 185.38 107.57 183.58 106.07 181.78 104.58 179.99 103.08 178.19 101.58 176.4 100.08 174.6 98.59 172.8 97.09 171 95.59 169.21 94.1 167.41 92.6 165.62 91.1 163.82 89.61 162.02 88.11 160.22 86.61 158.43 85.11 156.63 83.62 154.83 82.12 153.04 80.62 152.12 79.86 151.24 79.13 149.44 77.63 148.56 76.9 147.34 75.88 144.5 73.51 144.05 73.14 142.26 71.64 141.79 71.26 140.34 70.04 139.85 69.64 138.66 68.65 138.2 68.26 132.35 63.39 130.62 61.95 129.68 61.16 127.88 59.67 126.36 58.39 125.95 58.06 116.87 61.4 116.07 61.69 114.4 62.3 105.53 65.57 104.55 65.93 102.63 66.64 102.5 66.68 93.98 69.82 93.98 69.82 93.04 70.17 91.12 70.87 89.2 71.58 87.28 72.28 85.36 72.99 83.44 73.7 81.52 74.4 79.6 75.11 77.68 75.82 75.76 76.52 73.84 77.23 71.92 77.94 70 78.64 68.08 79.35 66.16 80.06 64.24 80.76 62.32 81.47 60.4 82.17 58.48 82.88 56.56 83.59 54.64 84.29 52.72 85 50.8 85.7 48.88 86.41 46.97 87.12 45.05 87.82 43.13 88.53 41.21 89.24 39.29 89.94 37.37 90.65 35.45 91.36 33.53 92.06 31.61 92.77 29.69 93.47 27.77 94.18 25.85 94.89 25.56 94.99 23.93 95.59 22.01 96.3 20.09 97.01 18.17 97.71 16.25 98.42 14.33 99.13 12.41 99.83 10.49 100.54 8.57 101.24 6.65 101.95 4.73 102.66 2.81 103.36 0.9 104.07 0 104.4 0.41 104.74 4.7 108.35 8.98 111.95 11.2 113.82 13.27 115.56 17.56 119.17 18.84 120.25 21.85 122.78 26 126.27 26 126.27 26.14 126.38 30.43 129.99 34.72 133.6 39 137.2 43.29 140.81 47.58 144.42 51.87 148.02 56.16 151.63 60.45 155.24 64.73 158.84 69.02 162.45 73.31 166.06 77.6 169.66 81.89 173.27 86.18 176.88 90.47 180.48 94.75 184.09 99.04 187.7 103.33 191.3 107.62 194.91 111.91 198.52 116.2 202.12 120.48 205.73 124.77 209.34 129.06 212.94 133.35 216.55 137.64 220.16 141.93 223.76 146.22 227.37 150.5 230.98 154.79 234.59 159.08 238.19 163.37 241.8 167.66 245.41 171.94 249.01 176.23 252.62 180.52 256.23 184.81 259.83 189.1 263.44 193.39 267.05 197.68 270.65 201.96 274.26 206.25 277.87 206.38 277.97 206.37 277.99 208.52 279.79 214.14 284.51 219.76 289.24 225.38 293.96 231 298.68 231.98 299.5 231.98 299.51 232.08 299.59 232.16 299.09 232.61 296.52 233.06 293.95 233.5 291.37 233.95 288.8 234.4 286.23 234.85 283.65 235.29 281.08 235.74 278.51 236.19 275.94 236.64 273.36 237.08 270.79 237.53 268.22 237.98 265.64 238.43 263.07 238.87 260.5 239.32 257.92 239.77 255.35 240.21 252.78 240.66 250.2 241.11 247.63 241.56 245.06 242 242.49 242.45 239.91 242.9 237.34 243.35 234.77 243.7 232.72 242.54 231.75 236.84 227 231.13 222.25 225.43 217.49 219.73 212.74 217.77 211.11 217.62 211.99 217.18 214.57 216.74 217.15 216.3 219.72 215.86 222.3 215.42 224.87 214.98 227.45 214.54 230.03 214.1 232.6 213.67 235.18 213.23 237.75 212.79 240.33 212.35 242.91 212.32 243.06 211.76 242.58 207.44 238.99 203.13 235.4 198.82 231.81 194.51 228.22 190.2 224.62 185.89 221.03 181.58 217.44 177.27 213.85 172.95 210.26 168.64 206.66 164.33 203.07 160.02 199.48 155.71 195.89 151.4 192.3 147.09 188.7 142.77 185.11 138.46 181.52 134.15 177.93 129.84 174.34 125.53 170.74 121.22 167.15 116.91 163.56 112.59 159.97 108.28 156.38 103.97 152.78 99.66 149.19 95.35 145.6 91.04 142.01 86.72 138.41 82.41 134.82 78.1 131.23 73.79 127.64 69.48 124.05 65.17 120.45 60.86 116.86 58.01 114.49 58.76 114.21 60.67 113.51 62.59 112.8 64.51 112.09 66.43 111.39 68.35 110.68 70.27 109.97 72.19 109.27 74.11 108.56 76.03 107.86 77.95 107.15 79.87 106.44 81.79 105.74 83.71 105.03 85.63 104.33 87.55 103.62 89.47 102.91 91.39 102.21 93.31 101.5 95.23 100.79 97.15 100.09 99.07 99.38 100.99 98.67 102.91 97.97 104.83 97.26 106.75 96.56 108.67 95.85 110.58 95.14 112.5 94.44 114.42 93.73 116.34 93.02 118.26 92.32 120.15 91.62 120.85 92.21 122.65 93.7 124.45 95.2 126.24 96.7 128.04 98.19 129.84 99.69 131.63 101.19 133.43 102.69 135.23 104.18 137.02 105.68 138.82 107.18 140.62 108.67 142.41 110.17 144.21 111.67 146.01 113.16 147.8 114.66 149.6 116.16 151.4 117.65 153.19 119.15 154.99 120.65 156.79 122.14 158.58 123.64 160.38 125.14 162.18 126.64 163.97 128.13 165.77 129.63 167.57 131.13 169.37 132.62 171.16 134.12 172.96 135.62 174.75 137.12 176.55 138.61 178.35 140.11 180.15 141.61 181.94 143.1 183.74 144.6 185.54 146.1 187.33 147.59 189.13 149.09 190.93 150.59 192.72 152.08 194.52 153.58 196.32 155.08 198.11 156.57 199.91 158.07 201.71 159.57 203.5 161.07 205.3 162.56 207.1 164.06 208.89 165.56 210.69 167.05 212.49 168.55 214.28 170.05 216.08 171.54 217.88 173.04 219.67 174.54 221.47 176.04 223.14 177.43 223.84 178.01 226.48 180.21 229.12 182.41 230.46 183.52 231.75 184.6 234.39 186.8 237.02 188.99 239.66 191.19 241.24 192.5 242.3 193.39 243.03 194 243.81 194.64 244.93 195.58 247.57 197.78 248.42 198.49 249.31 199.23 249.52 198.02 249.55 197.87 249.9 195.81 249.94 195.56 250.37 193.11 250.79 190.66 251.22 188.21 251.32 187.57 251.64 185.75 251.79 184.9 252.04 183.45 252.06 183.3 252.39 181.39 252.49 180.85 252.75 179.33 252.91 178.4 253.33 175.94 253.76 173.49 253.82 173.15 253.87 172.85 254.18 171.04 254.6 168.59 254.88 166.97 255.03 166.13 255.11 165.66 255.24 164.91 255.59 162.85 255.95 160.79 256.31 158.73 256.66 156.67 257.02 154.6 257.37 152.54 257.73 150.49 258.09 148.43 258.44 146.37 258.8 144.31 259.15 142.25 259.51 140.19 259.87 138.13 260.22 136.06 260.58 134 260.93 131.94 261.29 129.88 261.64 127.82 262 125.76 262.36 123.7 262.71 121.64 263.07 119.58 263.42 117.52 263.78 115.46 264.13 113.4 264.49 111.34 264.85 109.28 265.2 107.22 265.56 105.16 265.91 103.1 266.27 101.04 266.63 98.98 266.98 96.92 267.34 94.86 267.69 92.8 268.05 90.74 268.4 88.68 268.76 86.62 269.12 84.56 269.47 82.5 269.83 80.44 270.18 78.38 270.54 76.32 270.89 74.26 271.25 72.2 271.61 70.14 271.96 68.08 272.32 66.02 272.67 63.96 273.03 61.9 273.38 59.84 273.74 57.78 274.1 55.72 274.45 53.66 274.81 51.6 275.16 49.54 275.52 47.48 275.88 45.42 276.23 43.36 276.59 41.3 276.94 39.24 277.3 37.18 277.65 35.12 278.01 33.06 278.03 32.94 278.14 32.91 278.29 32.01 278.6 30.19 278.9 28.38 279.21 26.56 279.52 24.74 279.83 22.92 280.14 21.1 280.45 19.28 280.76 17.46 281.07 15.64 281.37 13.82 281.68 12.01 281.99 10.19 282.3 8.37 282.61 6.55 282.92 4.73 283.23 2.91 283.54 1.09 283.72 0 282.95 0.28"/></g></g></svg>