<svg xmlns="http://www.w3.org/2000/svg" xmlns:xlink="http://www.w3.org/1999/xlink" viewBox="0 0 479.74 506.57"><defs><style>.cls-1{fill:url(#linear-gradient);}</style><linearGradient id="linear-gradient" x1="146.95" y1="-28.67" x2="502.95" y2="419.33" gradientUnits="userSpaceOnUse"><stop offset="0" stop-color="aqua"/><stop offset="0.11" stop-color="#00e2ff"/><stop offset="0.39" stop-color="#009cff"/><stop offset="0.65" stop-color="#0059ff"/><stop offset="1" stop-color="blue"/></linearGradient></defs><title>A23Pay_1</title><g id="Layer_2" data-name="Layer 2"><g id="Layer_1-2" data-name="Layer 1"><polygon class="cls-1" points="478.43 0.47 476.25 1.27 474.08 2.06 471.9 2.85 469.72 3.64 467.55 4.43 465.37 5.22 463.19 6.01 461.01 6.8 458.84 7.59 456.66 8.38 454.48 9.18 452.31 9.97 450.13 10.76 447.95 11.55 445.77 12.34 443.6 13.13 441.42 13.92 439.24 14.71 437.07 15.5 434.89 16.29 432.71 17.08 430.54 17.88 428.36 18.67 426.18 19.46 424 20.25 421.83 21.04 419.65 21.83 417.47 22.62 415.3 23.41 413.12 24.2 410.94 24.99 408.76 25.78 406.59 26.57 404.41 27.36 402.23 28.16 400.06 28.95 397.88 29.74 395.7 30.53 393.53 31.32 391.35 32.11 389.17 32.9 387 33.69 384.82 34.48 382.64 35.27 380.46 36.06 378.29 36.86 376.11 37.65 373.93 38.44 371.76 39.23 369.58 40.02 367.4 40.81 365.23 41.6 363.05 42.39 360.87 43.18 358.69 43.97 356.52 44.77 354.34 45.56 352.16 46.35 349.99 47.14 347.81 47.93 345.63 48.72 343.45 49.51 341.28 50.3 339.1 51.09 336.92 51.88 334.75 52.67 332.57 53.47 330.39 54.26 328.21 55.05 326.04 55.84 323.86 56.63 321.68 57.42 319.51 58.21 317.33 59 315.15 59.79 312.98 60.58 310.8 61.37 308.62 62.16 306.44 62.96 304.27 63.75 302.09 64.54 299.91 65.33 297.74 66.12 295.56 66.91 293.38 67.7 291.2 68.49 289.03 69.28 286.85 70.07 284.67 70.86 282.5 71.66 280.32 72.45 278.14 73.24 275.97 74.03 273.79 74.82 271.61 75.61 269.44 76.4 267.92 76.95 272.76 80.99 279.69 86.77 286.63 92.55 293.57 98.33 300.51 104.11 307.44 109.89 312.17 113.82 312.86 113.57 315.03 112.77 317.2 111.97 319.38 111.17 321.55 110.37 323.72 109.57 325.89 108.77 328.06 107.97 330.23 107.17 332.4 106.38 334.57 105.58 336.74 104.78 338.92 103.98 341.09 103.18 343.26 102.38 345.43 101.58 347.6 100.78 349.77 99.98 351.94 99.19 354.12 98.39 356.29 97.59 358.46 96.79 360.63 95.99 362.8 95.19 364.97 94.39 367.14 93.59 369.31 92.8 371.48 92 373.66 91.2 375.83 90.4 378 89.6 380.17 88.8 382.34 88 384.51 87.2 386.68 86.4 388.85 85.6 391.02 84.81 393.2 84.01 395.37 83.21 397.54 82.41 399.71 81.61 401.88 80.81 404.05 80.01 406.22 79.21 408.39 78.41 410.57 77.61 412.74 76.82 414.91 76.02 416.06 75.59 415.65 78 415.05 81.48 414.44 84.97 413.84 88.45 413.24 91.93 412.64 95.42 412.04 98.9 411.44 102.38 410.83 105.87 410.23 109.35 409.63 112.83 409.03 116.32 408.43 119.8 407.83 123.28 407.22 126.77 406.62 130.25 406.02 133.74 405.42 137.22 404.82 140.7 404.22 144.19 403.62 147.67 403.01 151.15 402.41 154.63 401.81 158.12 401.21 161.6 400.61 165.09 400 168.57 399.4 172.05 398.8 175.54 398.2 179.02 397.6 182.5 397 185.99 396.39 189.47 395.79 192.95 395.19 196.44 394.59 199.92 393.99 203.4 393.39 206.89 392.79 210.37 392.18 213.85 391.58 217.34 390.98 220.82 390.38 224.3 389.78 227.79 389.18 231.27 388.57 234.75 387.97 238.24 387.37 241.72 387.11 243.25 386.37 242.63 383.33 240.1 380.29 237.57 377.25 235.04 374.22 232.51 371.18 229.98 368.14 227.45 365.1 224.92 362.06 222.39 359.03 219.85 355.99 217.32 352.95 214.79 349.91 212.26 346.87 209.73 343.84 207.2 340.8 204.67 337.76 202.14 334.72 199.6 331.68 197.07 328.64 194.54 325.61 192.01 322.57 189.48 319.53 186.95 316.49 184.42 313.45 181.89 310.42 179.36 307.38 176.82 304.34 174.29 301.3 171.76 298.26 169.23 295.23 166.7 292.19 164.17 289.15 161.64 286.11 159.11 283.07 156.57 280.04 154.04 277 151.51 273.96 148.98 270.92 146.45 267.88 143.92 264.84 141.39 261.81 138.86 258.77 136.32 257.22 135.03 255.73 133.79 252.69 131.26 251.2 130.02 249.14 128.3 244.33 124.3 243.58 123.67 240.54 121.14 239.76 120.49 237.3 118.44 236.47 117.74 234.46 116.08 233.68 115.42 223.79 107.19 220.86 104.74 219.27 103.42 216.24 100.89 213.65 98.74 212.97 98.17 197.61 103.82 196.26 104.31 193.44 105.35 178.44 110.87 176.79 111.48 173.54 112.67 173.31 112.75 158.91 118.06 158.91 118.06 157.31 118.64 154.07 119.84 150.82 121.03 147.58 122.23 144.33 123.42 141.08 124.61 137.84 125.81 134.59 127 131.35 128.2 128.1 129.39 124.86 130.59 121.61 131.78 118.36 132.97 115.12 134.17 111.87 135.36 108.63 136.56 105.38 137.75 102.13 138.95 98.89 140.14 95.64 141.34 92.4 142.53 89.15 143.72 85.91 144.92 82.66 146.11 79.41 147.31 76.17 148.5 72.92 149.69 69.68 150.89 66.43 152.08 63.18 153.28 59.94 154.47 56.69 155.67 53.45 156.86 50.2 158.06 46.95 159.25 43.71 160.44 43.22 160.62 40.46 161.64 37.22 162.83 33.97 164.03 30.73 165.22 27.48 166.41 24.23 167.61 20.99 168.8 17.74 170 14.5 171.19 11.25 172.39 8 173.58 4.76 174.78 1.51 175.97 0 176.53 0.69 177.11 7.94 183.21 15.19 189.3 18.94 192.46 22.44 195.4 29.7 201.5 31.86 203.32 36.95 207.6 43.96 213.5 43.96 213.5 44.2 213.7 51.45 219.8 58.7 225.9 65.95 231.99 73.2 238.09 80.45 244.19 87.7 250.29 94.96 256.39 102.21 262.49 109.46 268.59 116.71 274.68 123.96 280.78 131.21 286.88 138.46 292.98 145.72 299.08 152.97 305.18 160.22 311.28 167.47 317.38 174.72 323.47 181.97 329.57 189.22 335.67 196.47 341.77 203.72 347.87 210.98 353.97 218.23 360.06 225.48 366.16 232.73 372.26 239.98 378.36 247.23 384.46 254.48 390.56 261.74 396.66 268.99 402.75 276.24 408.85 283.49 414.95 290.74 421.05 297.99 427.15 305.24 433.25 312.49 439.35 319.75 445.45 327 451.54 334.25 457.64 341.5 463.74 348.75 469.84 348.96 470.01 348.95 470.04 352.59 473.1 362.09 481.08 371.59 489.07 381.09 497.05 390.6 505.04 392.25 506.42 392.26 506.43 392.42 506.56 392.56 505.73 393.32 501.38 394.07 497.03 394.83 492.68 395.59 488.33 396.34 483.98 397.1 479.63 397.86 475.28 398.61 470.93 399.37 466.57 400.12 462.22 400.88 457.87 401.64 453.52 402.39 449.17 403.15 444.82 403.91 440.47 404.66 436.12 405.42 431.77 406.18 427.42 406.93 423.07 407.69 418.71 408.44 414.37 409.2 410.01 409.96 405.66 410.71 401.31 411.47 396.96 412.07 393.5 410.11 391.86 400.47 383.83 390.82 375.79 381.18 367.75 371.53 359.72 368.22 356.96 367.96 358.45 367.22 362.81 366.48 367.17 365.74 371.52 365 375.88 364.25 380.23 363.51 384.59 362.77 388.95 362.03 393.3 361.28 397.66 360.54 402.01 359.8 406.37 359.06 410.73 359.01 410.98 358.06 410.18 350.77 404.11 343.48 398.04 336.19 391.96 328.9 385.89 321.61 379.81 314.32 373.74 307.03 367.67 299.74 361.59 292.44 355.52 285.15 349.44 277.87 343.37 270.57 337.3 263.29 331.22 256 325.15 248.7 319.08 241.41 313 234.12 306.93 226.83 300.86 219.54 294.78 212.25 288.71 204.96 282.63 197.67 276.56 190.38 270.49 183.09 264.41 175.8 258.34 168.51 252.27 161.22 246.19 153.93 240.12 146.64 234.04 139.35 227.97 132.06 221.9 124.77 215.82 117.48 209.75 110.19 203.68 102.9 197.6 98.08 193.59 99.35 193.12 102.59 191.93 105.84 190.73 109.09 189.54 112.33 188.34 115.58 187.15 118.82 185.96 122.07 184.76 125.31 183.57 128.56 182.37 131.81 181.18 135.05 179.98 138.3 178.79 141.54 177.6 144.79 176.4 148.04 175.21 151.28 174.01 154.53 172.82 157.77 171.62 161.02 170.43 164.26 169.24 167.51 168.04 170.76 166.85 174 165.65 177.25 164.46 180.5 163.26 183.74 162.07 186.99 160.88 190.23 159.68 193.48 158.49 196.72 157.29 199.97 156.1 203.16 154.92 204.35 155.91 207.38 158.44 210.42 160.97 213.46 163.5 216.5 166.03 219.54 168.56 222.57 171.1 225.61 173.63 228.65 176.16 231.69 178.69 234.73 181.22 237.77 183.75 240.8 186.28 243.84 188.81 246.88 191.35 249.92 193.88 252.96 196.41 256 198.94 259.03 201.47 262.07 204 265.11 206.53 268.15 209.06 271.19 211.6 274.22 214.13 277.26 216.66 280.3 219.19 283.34 221.72 286.38 224.25 289.41 226.78 292.45 229.31 295.49 231.84 298.53 234.38 301.57 236.91 304.61 239.44 307.64 241.97 310.68 244.5 313.72 247.03 316.76 249.56 319.8 252.09 322.83 254.63 325.87 257.16 328.91 259.69 331.95 262.22 334.99 264.75 338.02 267.28 341.06 269.81 344.1 272.34 347.14 274.88 350.18 277.41 353.21 279.94 356.25 282.47 359.29 285 362.33 287.53 365.37 290.06 368.41 292.59 371.44 295.13 374.48 297.66 377.3 300.01 378.5 301 382.95 304.71 387.41 308.43 389.67 310.31 391.87 312.14 396.32 315.85 400.78 319.57 405.24 323.28 407.9 325.5 409.69 326.99 410.94 328.03 412.25 329.12 414.15 330.71 418.61 334.42 420.05 335.62 421.56 336.88 421.91 334.82 421.95 334.57 422.56 331.09 422.63 330.68 423.34 326.53 424.06 322.38 424.77 318.24 424.96 317.15 425.49 314.09 425.74 312.64 426.17 310.19 426.21 309.94 426.77 306.7 426.92 305.8 427.37 303.22 427.64 301.65 428.36 297.5 429.07 293.35 429.17 292.77 429.26 292.26 429.79 289.21 430.5 285.06 430.98 282.32 431.22 280.91 431.36 280.12 431.58 278.84 432.18 275.35 432.78 271.87 433.38 268.39 433.99 264.9 434.59 261.42 435.19 257.94 435.79 254.45 436.39 250.97 436.99 247.49 437.6 244 438.2 240.52 438.8 237.04 439.4 233.55 440 230.07 440.6 226.59 441.21 223.1 441.81 219.62 442.41 216.14 443.01 212.65 443.61 209.17 444.21 205.69 444.82 202.2 445.42 198.72 446.02 195.24 446.62 191.75 447.22 188.27 447.82 184.78 448.43 181.3 449.03 177.82 449.63 174.34 450.23 170.85 450.83 167.37 451.43 163.88 452.04 160.4 452.64 156.92 453.24 153.44 453.84 149.95 454.44 146.47 455.04 142.98 455.64 139.5 456.25 136.02 456.85 132.53 457.45 129.05 458.05 125.57 458.65 122.08 459.25 118.6 459.86 115.12 460.46 111.63 461.06 108.15 461.66 104.67 462.26 101.18 462.87 97.7 463.47 94.22 464.07 90.73 464.67 87.25 465.27 83.77 465.87 80.28 466.47 76.8 467.08 73.32 467.68 69.83 468.28 66.35 468.88 62.87 469.48 59.38 470.08 55.9 470.12 55.7 470.3 55.64 470.55 54.13 471.07 51.05 471.6 47.98 472.12 44.9 472.64 41.83 473.16 38.75 473.68 35.68 474.21 32.6 474.73 29.53 475.25 26.45 475.77 23.38 476.29 20.3 476.82 17.23 477.34 14.15 477.86 11.07 478.38 8 478.9 4.92 479.43 1.85 479.74 0 478.43 0.47"/></g></g></svg>