<svg xmlns="http://www.w3.org/2000/svg" xmlns:xlink="http://www.w3.org/1999/xlink" viewBox="0 0 286.15 370.4"><defs><style>.cls-1{fill:url(#linear-gradient);}.cls-2{fill:url(#linear-gradient-2);}.cls-3{fill:url(#linear-gradient-3);}.cls-4{fill:url(#linear-gradient-4);}.cls-5{fill:url(#linear-gradient-5);}.cls-6{fill:url(#linear-gradient-6);}.cls-7{fill:url(#linear-gradient-7);}.cls-8{fill:url(#linear-gradient-8);}.cls-9{fill:url(#linear-gradient-9);}.cls-10{fill:url(#linear-gradient-10);}.cls-11{fill:url(#linear-gradient-11);}.cls-12{fill:url(#linear-gradient-12);}.cls-13{fill:url(#linear-gradient-13);}.cls-14{fill:url(#linear-gradient-14);}.cls-15{fill:url(#linear-gradient-15);}.cls-16{fill:url(#linear-gradient-16);}.cls-17{fill:url(#linear-gradient-17);}.cls-18{fill:url(#linear-gradient-18);}</style><linearGradient id="linear-gradient" x1="-3.85" y1="-20.57" x2="172.15" y2="391.43" gradientUnits="userSpaceOnUse"><stop offset="0" stop-color="aqua"/><stop offset="0.11" stop-color="#00e2ff"/><stop offset="0.39" stop-color="#009cff"/><stop offset="0.65" stop-color="#0059ff"/><stop offset="1" stop-color="blue"/></linearGradient><linearGradient id="linear-gradient-2" x1="7.73" y1="-25.52" x2="183.73" y2="386.48" xlink:href="#linear-gradient"/><linearGradient id="linear-gradient-3" x1="15.71" y1="-28.93" x2="191.71" y2="383.07" xlink:href="#linear-gradient"/><linearGradient id="linear-gradient-4" x1="17.03" y1="-29.49" x2="193.03" y2="382.51" xlink:href="#linear-gradient"/><linearGradient id="linear-gradient-5" x1="-59.68" y1="3.28" x2="116.32" y2="415.28" xlink:href="#linear-gradient"/><linearGradient id="linear-gradient-6" x1="75.69" y1="-54.55" x2="251.69" y2="357.45" xlink:href="#linear-gradient"/><linearGradient id="linear-gradient-7" x1="112.19" y1="-70.15" x2="288.19" y2="341.85" xlink:href="#linear-gradient"/><linearGradient id="linear-gradient-8" x1="96.6" y1="-63.48" x2="272.6" y2="348.52" xlink:href="#linear-gradient"/><linearGradient id="linear-gradient-9" x1="115.34" y1="-71.49" x2="291.34" y2="340.51" xlink:href="#linear-gradient"/><linearGradient id="linear-gradient-10" x1="40.5" y1="-39.52" x2="216.5" y2="372.48" xlink:href="#linear-gradient"/><linearGradient id="linear-gradient-11" x1="128.88" y1="-77.27" x2="304.88" y2="334.73" xlink:href="#linear-gradient"/><linearGradient id="linear-gradient-12" x1="8.29" y1="-25.76" x2="184.29" y2="386.24" xlink:href="#linear-gradient"/><linearGradient id="linear-gradient-13" x1="93.1" y1="-61.99" x2="269.1" y2="350.01" xlink:href="#linear-gradient"/><linearGradient id="linear-gradient-14" x1="175.05" y1="-96.99" x2="351.05" y2="315.01" xlink:href="#linear-gradient"/><linearGradient id="linear-gradient-15" x1="-38.64" y1="-5.71" x2="137.36" y2="406.29" xlink:href="#linear-gradient"/><linearGradient id="linear-gradient-16" x1="170.32" y1="-94.97" x2="346.32" y2="317.03" xlink:href="#linear-gradient"/><linearGradient id="linear-gradient-17" x1="143.78" y1="-83.64" x2="319.78" y2="328.36" xlink:href="#linear-gradient"/><linearGradient id="linear-gradient-18" x1="19.95" y1="-30.74" x2="195.95" y2="381.26" xlink:href="#linear-gradient"/></defs><title>bioID</title><g id="Layer_2" data-name="Layer 2"><g id="Layer_1-2" data-name="Layer 1"><path class="cls-1" d="M165.27,224.29V198a18.8,18.8,0,1,0-37.6,0v23.74A115.42,115.42,0,0,1,98,299.07L71.61,328.39a6,6,0,1,0,8.92,8l26.39-29.32a127.41,127.41,0,0,0,32.75-85.36V198a6.8,6.8,0,1,1,13.6,0v26.29a140.91,140.91,0,0,1-36.72,95L90.83,347.56a6,6,0,1,0,8.88,8.07l25.72-28.29A152.89,152.89,0,0,0,165.27,224.29Z"/><path class="cls-2" d="M190.87,198a44.4,44.4,0,0,0-88.8,0v23.74A89.86,89.86,0,0,1,79,281.94L60.21,302.78a6,6,0,1,0,8.92,8L87.89,290a101.86,101.86,0,0,0,26.18-68.24V198a32.4,32.4,0,0,1,64.8,0v26.29a166.46,166.46,0,0,1-43.37,112.2l-21.7,23.87a6,6,0,0,0,8.88,8.08l21.7-23.87a178.44,178.44,0,0,0,46.5-120.27Z"/><path class="cls-3" d="M216.47,198a70,70,0,0,0-140,0v23.74a64.31,64.31,0,0,1-16.53,43.08L43,283.59a6,6,0,1,0,8.92,8l16.89-18.76a76.28,76.28,0,0,0,19.61-51.11V198a58,58,0,0,1,116,0v26.29a192,192,0,0,1-50,129.42l-6,6.61a6,6,0,1,0,8.88,8.07l6-6.61a204,204,0,0,0,53.16-137.49Z"/><path class="cls-4" d="M50.87,198a6,6,0,0,0,12,0,83.74,83.74,0,0,1,71.65-82.75,6,6,0,1,0-1.71-11.87A95.73,95.73,0,0,0,50.87,198Z"/><path class="cls-5" d="M62.87,221.74a6,6,0,0,0-12,0,38.73,38.73,0,0,1-10,26l-15,16.7a6,6,0,0,0,8.92,8l15-16.7A50.71,50.71,0,0,0,62.87,221.74Z"/><path class="cls-6" d="M230.3,275.3a6,6,0,0,0-7.32,4.29,218.39,218.39,0,0,1-8.19,25A6,6,0,0,0,225.94,309a230.6,230.6,0,0,0,8.65-26.39A6,6,0,0,0,230.3,275.3Z"/><path class="cls-7" d="M210.32,126.91a6,6,0,0,0-8,8.92A83.75,83.75,0,0,1,230.07,198v26.29a220.2,220.2,0,0,1-2,29.89,6,6,0,0,0,5.13,6.76,5.87,5.87,0,0,0,.82.05,6,6,0,0,0,5.94-5.18,232.31,232.31,0,0,0,2.16-31.53V198A95.76,95.76,0,0,0,210.32,126.91Z"/><path class="cls-8" d="M182.27,122.46a6,6,0,0,0,5.16-10.84,95,95,0,0,0-27.31-8.25,6,6,0,0,0-1.71,11.88A82.93,82.93,0,0,1,182.27,122.46Z"/><path class="cls-9" d="M146.47,76.8c-2.25,0-4.51.06-6.75.18a6,6,0,0,0,.66,12c2-.11,4.06-.16,6.09-.16A109.32,109.32,0,0,1,255.67,198v26.29a6,6,0,0,0,12,0V198A121.34,121.34,0,0,0,146.47,76.8Z"/><path class="cls-10" d="M80.87,109.35a6,6,0,0,0,3.42-1.07,108.51,108.51,0,0,1,32.59-15.41,6,6,0,1,0-3.25-11.55,120.59,120.59,0,0,0-36.18,17.1,6,6,0,0,0,3.43,10.93Z"/><path class="cls-11" d="M146.47,25.6a172.63,172.63,0,0,0-39.74,4.62A6,6,0,1,0,109.5,41.9a160.71,160.71,0,0,1,37-4.3A159,159,0,0,1,262.11,87a6,6,0,1,0,8.65-8.31,171.9,171.9,0,0,0-124.29-53Z"/><path class="cls-12" d="M11.69,100.32a6,6,0,0,0,8.43-1,161.39,161.39,0,0,1,65.1-49.54,6,6,0,0,0-4.6-11.09,173.47,173.47,0,0,0-70,53.23A6,6,0,0,0,11.69,100.32Z"/><path class="cls-13" d="M63.28,31a6,6,0,0,0,2.6-.6A183.83,183.83,0,0,1,146.47,12,186.24,186.24,0,0,1,190,17.14,6,6,0,0,0,192.8,5.47,198.18,198.18,0,0,0,146.47,0,195.78,195.78,0,0,0,60.66,19.57,6,6,0,0,0,63.28,31Z"/><path class="cls-14" d="M215.07,25.1a185.8,185.8,0,0,1,18.19,8.42,6,6,0,0,0,5.62-10.6,199,199,0,0,0-19.37-9,6,6,0,1,0-4.44,11.15Z"/><path class="cls-15" d="M37.46,221.51V197.78a108.73,108.73,0,0,1,29.76-74.85,6,6,0,0,0-8.73-8.23,120.7,120.7,0,0,0-33,83.09v23.74a13.17,13.17,0,0,1-3.39,8.83l-7.4,8.22a6,6,0,1,0,8.92,8l7.4-8.22A25.15,25.15,0,0,0,37.46,221.51Z"/><path class="cls-16" d="M285.83,151.06a146,146,0,0,0-31.09-52.51,6,6,0,1,0-8.84,8.12,134.07,134.07,0,0,1,28.55,48.22,6,6,0,1,0,11.37-3.83Z"/><path class="cls-17" d="M194.07,58.83a6,6,0,1,0-3.89,11.35,134.44,134.44,0,0,1,36.92,19.5,6,6,0,0,0,7.18-9.62A146.36,146.36,0,0,0,194.07,58.83Z"/><path class="cls-18" d="M53.43,100.5A134.12,134.12,0,0,1,146.65,63,136.1,136.1,0,0,1,166,64.36a6,6,0,0,0,1.72-11.88A148.13,148.13,0,0,0,146.65,51,147,147,0,0,0,0,191.11a6,6,0,0,0,5.72,6.26H6a6,6,0,0,0,6-5.73A134.12,134.12,0,0,1,53.43,100.5Z"/></g></g></svg>