<svg xmlns="http://www.w3.org/2000/svg" xmlns:xlink="http://www.w3.org/1999/xlink" viewBox="0 0 341.61 325.59"><defs><style>.cls-1{fill:url(#linear-gradient);}.cls-2{fill:url(#linear-gradient-2);}</style><linearGradient id="linear-gradient" x1="57.2" y1="31.86" x2="275.85" y2="268.72" gradientUnits="userSpaceOnUse"><stop offset="0" stop-color="aqua"/><stop offset="0.11" stop-color="#00e2ff"/><stop offset="0.39" stop-color="#009cff"/><stop offset="0.65" stop-color="#0059ff"/><stop offset="1" stop-color="blue"/></linearGradient><linearGradient id="linear-gradient-2" x1="54.08" y1="23.96" x2="333.64" y2="326.81" xlink:href="#linear-gradient"/></defs><title>Easydial</title><g id="Layer_2" data-name="Layer 2"><g id="Layer_1-2" data-name="Layer 1"><path class="cls-1" d="M234.75,86.15a7.75,7.75,0,0,0-7.34-8.52A145.65,145.65,0,0,0,77.16,200.71a7.75,7.75,0,0,0,6.91,8.87l23.23,2.31a7.74,7.74,0,0,0,8.42-6.4,106.85,106.85,0,0,1,108.8-89.12,7.74,7.74,0,0,0,7.93-7ZM241.87,9a7.76,7.76,0,0,0-7.2-8.52C118.28-7,15.66,77.09.07,192.63A7.76,7.76,0,0,0,7,201.36l23.2,2.31A7.78,7.78,0,0,0,38.66,197,183.67,183.67,0,0,1,231.33,39.16a7.78,7.78,0,0,0,8.23-7L241.87,9Z"/><path class="cls-2" d="M332.59,89,282.11,77.39a11.72,11.72,0,0,0-13.35,6.75l-23.3,54.36a11.62,11.62,0,0,0,3.35,13.59l29.41,24.07a179.87,179.87,0,0,1-86,86l-24.07-29.41a11.64,11.64,0,0,0-13.59-3.35l-54.36,23.3a11.79,11.79,0,0,0-6.79,13.4l11.65,50.48a11.64,11.64,0,0,0,11.36,9c124.3,0,225.2-100.71,225.2-225.2A11.63,11.63,0,0,0,332.59,89Z"/></g></g></svg>