<svg xmlns="http://www.w3.org/2000/svg" viewBox="0 0 207.46 155.59"><defs><style>.cls-1{fill:#a0a0a0;}</style></defs><title>email-footer</title><g id="Layer_2" data-name="Layer 2"><g id="Layer_1-2" data-name="Layer 1"><path class="cls-1" d="M188,0H19.45A19.45,19.45,0,0,0,0,19.45v116.7a19.45,19.45,0,0,0,19.45,19.45H188a19.45,19.45,0,0,0,19.45-19.45V19.45A19.45,19.45,0,0,0,188,0Zm0,19.45V36c-9.09,7.4-23.57,18.9-54.53,43.15-6.82,5.37-20.34,18.26-29.75,18.11C94.33,97.4,80.8,84.5,74,79.13,43,54.89,28.54,43.38,19.45,36V19.45ZM19.45,136.14V60.94C28.73,68.34,41.9,78.71,62,94.43c8.86,7,24.37,22.36,41.76,22.27,17.31.09,32.62-15.07,41.76-22.26C165.55,78.72,178.72,68.34,188,60.94v75.2Z"/></g></g></svg>