<svg xmlns="http://www.w3.org/2000/svg" viewBox="0 0 448 448"><defs><style>.cls-1{fill:#383838;}</style></defs><title>medium</title><g id="Layer_2" data-name="Layer 2"><g id="Layer_1-2" data-name="Layer 1"><path class="cls-1" d="M0,0V448H448V0ZM372.2,106.1l-24,23a7,7,0,0,0-2.7,6.7V305.1a6.88,6.88,0,0,0,2.7,6.7l23.5,23v5.1h-118V335L278,311.4c2.4-2.4,2.4-3.1,2.4-6.7V167.8L212.8,339.4h-9.1L125,167.8v115a15.81,15.81,0,0,0,4.4,13.2L161,334.3v5.1H71.2v-5.1L102.8,296a15.31,15.31,0,0,0,4.1-13.2v-133a11.42,11.42,0,0,0-3.8-9.8L75,106.1V101h87.3l67.4,148L289,101.1h83.2Z"/></g></g></svg>