<svg xmlns="http://www.w3.org/2000/svg" viewBox="0 0 248.5 248.5"><defs><style>.cls-1{fill:#a0a0a0;}</style></defs><title>phone-footer</title><g id="Layer_2" data-name="Layer 2"><g id="Layer_1-2" data-name="Layer 1"><path class="cls-1" d="M239.47,11.94,189,.3A11.72,11.72,0,0,0,175.65,7L152.35,61.4A11.62,11.62,0,0,0,155.7,75l29.41,24.07a179.87,179.87,0,0,1-86,86L75,155.65a11.64,11.64,0,0,0-13.59-3.35L7.09,175.6A11.79,11.79,0,0,0,.3,189l11.65,50.48a11.64,11.64,0,0,0,11.36,9c124.3,0,225.2-100.71,225.2-225.2A11.63,11.63,0,0,0,239.47,11.94Z"/></g></g></svg>