<svg xmlns="http://www.w3.org/2000/svg" viewBox="0 0 151.77 269.81"><defs><style>.cls-1{fill:#a0a0a0;}</style></defs><title>pin-footer-map</title><g id="Layer_2" data-name="Layer 2"><g id="Layer_1-2" data-name="Layer 1"><path class="cls-1" d="M92.75,158.52V249.6L81.15,267a6.32,6.32,0,0,1-10.52,0L59,249.6V158.52A85.49,85.49,0,0,0,92.75,158.52ZM75.89,0A75.89,75.89,0,1,1,0,75.89,75.89,75.89,0,0,1,75.89,0M33.73,71.67A38,38,0,0,1,71.67,33.73a4.22,4.22,0,1,0,0-8.43A46.43,46.43,0,0,0,25.3,71.67a4.22,4.22,0,1,0,8.43,0Z"/></g></g></svg>