<svg xmlns="http://www.w3.org/2000/svg" viewBox="0 0 356.79 365.83"><defs><style>.cls-1{fill:#a0a0a0;}</style></defs><title>ultimatesms-footer</title><g id="Layer_2" data-name="Layer 2"><g id="Layer_1-2" data-name="Layer 1"><path class="cls-1" d="M343.71,0H13.07C5.85,0,0,6.11,0,13.66V227.5c0,7.54,5.85,13.66,13.07,13.66H201.29l-32.37,59.76,25.14-3.7-41.52,68.62h2.91l109.48-86.25L237,282.81l53.76-41.65h52.93c7.22,0,13.07-6.11,13.07-13.66V13.66C356.79,6.11,350.93,0,343.71,0ZM272.63,185.58H50.25a7,7,0,1,1,0-14H272.63a7,7,0,0,1,0,14ZM43.25,119.72a7,7,0,0,1,7-7h186.4a7,7,0,0,1,0,14H50.25A7,7,0,0,1,43.25,119.72Zm260-51.86h-253a7,7,0,1,1,0-14h253a7,7,0,0,1,0,14Z"/></g></g></svg>