<svg xmlns="http://www.w3.org/2000/svg" xmlns:xlink="http://www.w3.org/1999/xlink" viewBox="0 0 356.79 365.83"><defs><style>.cls-1{fill:url(#linear-gradient);}.cls-2{fill:#fff;}.cls-3{fill:none;stroke:#fff;stroke-linecap:round;stroke-miterlimit:10;stroke-width:8px;}</style><linearGradient id="linear-gradient" x1="23.51" y1="-57.04" x2="337.68" y2="303.25" gradientUnits="userSpaceOnUse"><stop offset="0" stop-color="aqua"/><stop offset="0.11" stop-color="#00e2ff"/><stop offset="0.39" stop-color="#009cff"/><stop offset="0.65" stop-color="#0059ff"/><stop offset="1" stop-color="blue"/></linearGradient></defs><title>ultimateSMS</title><g id="Layer_2" data-name="Layer 2"><g id="Layer_1-2" data-name="Layer 1"><path class="cls-1" d="M343.71,0H13.07C5.85,0,0,6.11,0,13.66V227.5c0,7.54,5.85,13.66,13.07,13.66H201.29l-32.37,59.76,25.14-3.7-41.52,68.62h2.91l109.48-86.25L237,282.81l53.76-41.65h52.93c7.22,0,13.07-6.11,13.07-13.66V13.66C356.79,6.11,350.93,0,343.71,0Z"/><path class="cls-2" d="M303.25,67.86h-253a7,7,0,1,1,0-14h253a7,7,0,0,1,0,14Z"/><path class="cls-2" d="M236.65,126.72H50.25a7,7,0,1,1,0-14h186.4a7,7,0,0,1,0,14Z"/><path class="cls-2" d="M272.63,185.58H50.25a7,7,0,1,1,0-14H272.63a7,7,0,0,1,0,14Z"/><path class="cls-3" d="M209.87,178.58"/></g></g></svg>